<svg width="796" height="573" viewBox="0 0 796 573" fill="none" xmlns="http://www.w3.org/2000/svg">
<g id="Group 158">
<g id="mesa19">
<path id="vector 1213123" d="M164.026 236.266V184.266H215.526V197.266V236.266H164.026Z" stroke="black"/>
<path id="Vector 9860" d="M177.026 236.765C177.026 238.815 177.026 239.965 177.026 242.015M203.026 236.765C203.026 238.461 203.026 240.106 203.026 242.015M177.026 242.015C180.36 244.765 190.226 248.615 203.026 242.015M177.026 242.015V245.765M203.026 242.015C203.026 243.527 203.026 244.891 203.026 245.765M177.026 245.765C180.193 249.098 189.826 253.765 203.026 245.765M177.026 245.765V247.265C181.026 252.098 191.826 258.765 203.026 246.765V245.765M202.526 175.266V179.016C202.526 181.066 202.526 182.215 202.526 184.266M176.526 175.266C176.526 176.14 176.526 177.504 176.526 179.016C176.526 180.924 176.526 182.57 176.526 184.266M202.526 179.016C199.193 176.266 189.326 172.416 176.526 179.016M202.526 175.266C199.36 171.932 189.726 167.266 176.526 175.266M202.526 175.266V173.766C198.526 168.932 187.726 162.266 176.526 174.266L176.526 175.266" stroke="black"/>
</g>
<g id="mesa20">
<path id="vector 1213123_2" d="M266.026 236.266V184.266H317.526V197.266V236.266H266.026Z" stroke="black"/>
<path id="Vector 9860_2" d="M279.026 236.765C279.026 238.815 279.026 239.965 279.026 242.015M305.026 236.765C305.026 238.461 305.026 240.106 305.026 242.015M279.026 242.015C282.36 244.765 292.226 248.615 305.026 242.015M279.026 242.015V245.765M305.026 242.015C305.026 243.527 305.026 244.891 305.026 245.765M279.026 245.765C282.193 249.098 291.826 253.765 305.026 245.765M279.026 245.765V247.265C283.026 252.098 293.826 258.765 305.026 246.765V245.765M304.526 175.266V179.016C304.526 181.066 304.526 182.215 304.526 184.266M278.526 175.266C278.526 176.14 278.526 177.504 278.526 179.016C278.526 180.924 278.526 182.57 278.526 184.266M304.526 179.016C301.193 176.266 291.326 172.416 278.526 179.016M304.526 175.266C301.36 171.932 291.726 167.266 278.526 175.266M304.526 175.266V173.766C300.526 168.932 289.726 162.266 278.526 174.266L278.526 175.266" stroke="black"/>
</g>
<g id="mesa21">
<path id="sla" d="M368.026 236.266V184.266H419.526V197.266V236.266H368.026Z" stroke="black"/>
<path id="Vector 9862" d="M381.026 236.765C381.026 238.815 381.026 239.965 381.026 242.015M407.026 236.765C407.026 238.461 407.026 240.106 407.026 242.015M381.026 242.015C384.36 244.765 394.226 248.615 407.026 242.015M381.026 242.015V245.765M407.026 242.015C407.026 243.527 407.026 244.891 407.026 245.765M381.026 245.765C384.193 249.098 393.826 253.765 407.026 245.765M381.026 245.765V247.265C385.026 252.098 395.826 258.765 407.026 246.765V245.765M406.526 175.266V179.016C406.526 181.066 406.526 182.215 406.526 184.266M380.526 175.266C380.526 176.14 380.526 177.504 380.526 179.016C380.526 180.924 380.526 182.57 380.526 184.266M406.526 179.016C403.193 176.266 393.326 172.416 380.526 179.016M406.526 175.266C403.36 171.932 393.726 167.266 380.526 175.266M406.526 175.266V173.766C402.526 168.932 391.726 162.266 380.526 174.266L380.526 175.266" stroke="black"/>
</g>
<g id="mesa22">
<path id="sla_2" d="M454.026 236.266V184.266H505.526V197.266V236.266H454.026Z" stroke="black"/>
<path id="Vector 9862_2" d="M467.026 236.765C467.026 238.815 467.026 239.965 467.026 242.015M493.026 236.765C493.026 238.461 493.026 240.106 493.026 242.015M467.026 242.015C470.36 244.765 480.226 248.615 493.026 242.015M467.026 242.015V245.765M493.026 242.015C493.026 243.527 493.026 244.891 493.026 245.765M467.026 245.765C470.193 249.098 479.826 253.765 493.026 245.765M467.026 245.765V247.265C471.026 252.098 481.826 258.765 493.026 246.765V245.765M492.526 175.266V179.016C492.526 181.066 492.526 182.215 492.526 184.266M466.526 175.266C466.526 176.14 466.526 177.504 466.526 179.016C466.526 180.924 466.526 182.57 466.526 184.266M492.526 179.016C489.193 176.266 479.326 172.416 466.526 179.016M492.526 175.266C489.36 171.932 479.726 167.266 466.526 175.266M492.526 175.266V173.766C488.526 168.932 477.726 162.266 466.526 174.266L466.526 175.266" stroke="black"/>
</g>
<g id="mesa23">
<path id="vector 1213123_3" d="M266.026 375.266V323.266H317.526V336.266V375.266H266.026Z" stroke="black"/>
<path id="Vector 9860_3" d="M279.026 375.765C279.026 377.815 279.026 378.965 279.026 381.015M305.026 375.765C305.026 377.461 305.026 379.106 305.026 381.015M279.026 381.015C282.36 383.765 292.226 387.615 305.026 381.015M279.026 381.015V384.765M305.026 381.015C305.026 382.527 305.026 383.891 305.026 384.765M279.026 384.765C282.193 388.098 291.826 392.765 305.026 384.765M279.026 384.765V386.265C283.026 391.098 293.826 397.765 305.026 385.765V384.765M304.526 314.266V318.016C304.526 320.066 304.526 321.215 304.526 323.266M278.526 314.266C278.526 315.14 278.526 316.504 278.526 318.016C278.526 319.924 278.526 321.57 278.526 323.266M304.526 318.016C301.193 315.266 291.326 311.416 278.526 318.016M304.526 314.266C301.36 310.932 291.726 306.266 278.526 314.266M304.526 314.266V312.766C300.526 307.932 289.726 301.266 278.526 313.266L278.526 314.266" stroke="black"/>
</g>
<g id="mesa24">
<path id="sla_3" d="M368.026 375.266V323.266H419.526V336.266V375.266H368.026Z" stroke="black"/>
<path id="Vector 9862_3" d="M381.026 375.765C381.026 377.815 381.026 378.965 381.026 381.015M407.026 375.765C407.026 377.461 407.026 379.106 407.026 381.015M381.026 381.015C384.36 383.765 394.226 387.615 407.026 381.015M381.026 381.015V384.765M407.026 381.015C407.026 382.527 407.026 383.891 407.026 384.765M381.026 384.765C384.193 388.098 393.826 392.765 407.026 384.765M381.026 384.765V386.265C385.026 391.098 395.826 397.765 407.026 385.765V384.765M406.526 314.266V318.016C406.526 320.066 406.526 321.215 406.526 323.266M380.526 314.266C380.526 315.14 380.526 316.504 380.526 318.016C380.526 319.924 380.526 321.57 380.526 323.266M406.526 318.016C403.193 315.266 393.326 311.416 380.526 318.016M406.526 314.266C403.36 310.932 393.726 306.266 380.526 314.266M406.526 314.266V312.766C402.526 307.932 391.726 301.266 380.526 313.266L380.526 314.266" stroke="black"/>
</g>
<g id="mesa25">
<path id="sla_4" d="M454.026 375.266V323.266H505.526V336.266V375.266H454.026Z" stroke="black"/>
<path id="Vector 9862_4" d="M467.026 375.765C467.026 377.815 467.026 378.965 467.026 381.015M493.026 375.765C493.026 377.461 493.026 379.106 493.026 381.015M467.026 381.015C470.36 383.765 480.226 387.615 493.026 381.015M467.026 381.015V384.765M493.026 381.015C493.026 382.527 493.026 383.891 493.026 384.765M467.026 384.765C470.193 388.098 479.826 392.765 493.026 384.765M467.026 384.765V386.265C471.026 391.098 481.826 397.765 493.026 385.765V384.765M492.526 314.266V318.016C492.526 320.066 492.526 321.215 492.526 323.266M466.526 314.266C466.526 315.14 466.526 316.504 466.526 318.016C466.526 319.924 466.526 321.57 466.526 323.266M492.526 318.016C489.193 315.266 479.326 311.416 466.526 318.016M492.526 314.266C489.36 310.932 479.726 306.266 466.526 314.266M492.526 314.266V312.766C488.526 307.932 477.726 301.266 466.526 313.266L466.526 314.266" stroke="black"/>
</g>
<g id="mesa26">
<path id="vector 1213123_4" d="M266.026 528.266V476.266H317.526V489.266V528.266H266.026Z" stroke="black"/>
<path id="Vector 9860_4" d="M279.026 528.765C279.026 530.815 279.026 531.965 279.026 534.015M305.026 528.765C305.026 530.461 305.026 532.106 305.026 534.015M279.026 534.015C282.36 536.765 292.226 540.615 305.026 534.015M279.026 534.015V537.765M305.026 534.015C305.026 535.527 305.026 536.891 305.026 537.765M279.026 537.765C282.193 541.098 291.826 545.765 305.026 537.765M279.026 537.765V539.265C283.026 544.098 293.826 550.765 305.026 538.765V537.765M304.526 467.266V471.016C304.526 473.066 304.526 474.215 304.526 476.266M278.526 467.266C278.526 468.14 278.526 469.504 278.526 471.016C278.526 472.924 278.526 474.57 278.526 476.266M304.526 471.016C301.193 468.266 291.326 464.416 278.526 471.016M304.526 467.266C301.36 463.932 291.726 459.266 278.526 467.266M304.526 467.266V465.766C300.526 460.932 289.726 454.266 278.526 466.266L278.526 467.266" stroke="black"/>
</g>
<g id="mesa27">
<path id="sla_5" d="M368.026 528.266V476.266H419.526V489.266V528.266H368.026Z" stroke="black"/>
<path id="Vector 9862_5" d="M381.026 528.765C381.026 530.815 381.026 531.965 381.026 534.015M407.026 528.765C407.026 530.461 407.026 532.106 407.026 534.015M381.026 534.015C384.36 536.765 394.226 540.615 407.026 534.015M381.026 534.015V537.765M407.026 534.015C407.026 535.527 407.026 536.891 407.026 537.765M381.026 537.765C384.193 541.098 393.826 545.765 407.026 537.765M381.026 537.765V539.265C385.026 544.098 395.826 550.765 407.026 538.765V537.765M406.526 467.266V471.016C406.526 473.066 406.526 474.215 406.526 476.266M380.526 467.266C380.526 468.14 380.526 469.504 380.526 471.016C380.526 472.924 380.526 474.57 380.526 476.266M406.526 471.016C403.193 468.266 393.326 464.416 380.526 471.016M406.526 467.266C403.36 463.932 393.726 459.266 380.526 467.266M406.526 467.266V465.766C402.526 460.932 391.726 454.266 380.526 466.266L380.526 467.266" stroke="black"/>
</g>
<g id="mesa28">
<path id="sla_6" d="M454.026 528.266V476.266H505.526V489.266V528.266H454.026Z" stroke="black"/>
<path id="Vector 9862_6" d="M467.026 528.765C467.026 530.815 467.026 531.965 467.026 534.015M493.026 528.765C493.026 530.461 493.026 532.106 493.026 534.015M467.026 534.015C470.36 536.765 480.226 540.615 493.026 534.015M467.026 534.015V537.765M493.026 534.015C493.026 535.527 493.026 536.891 493.026 537.765M467.026 537.765C470.193 541.098 479.826 545.765 493.026 537.765M467.026 537.765V539.265C471.026 544.098 481.826 550.765 493.026 538.765V537.765M492.526 467.266V471.016C492.526 473.066 492.526 474.215 492.526 476.266M466.526 467.266C466.526 468.14 466.526 469.504 466.526 471.016C466.526 472.924 466.526 474.57 466.526 476.266M492.526 471.016C489.193 468.266 479.326 464.416 466.526 471.016M492.526 467.266C489.36 463.932 479.726 459.266 466.526 467.266M492.526 467.266V465.766C488.526 460.932 477.726 454.266 466.526 466.266L466.526 467.266" stroke="black"/>
</g>
<path id="Vector 9861" d="M85.5264 482.005H135.026M100.526 556.134L85.5264 482.005L84.5361 463.005M85.5264 482.005L136.553 514.505M85.5264 482.005L131.526 556.437M135.026 482.005L134.276 463.005M135.026 482.005L136.553 514.505M483.526 561.005L268.526 558.005H266.026H258.526L260.026 328.505H77.5264L83.5459 444.005M83.5459 444.005H133.526L134.276 463.005M83.5459 444.005L84.5361 463.005M84.5361 463.005H134.276M33.9355 512.505L36.0264 555.505L67.0264 555.807M36.0264 555.505L83.5459 482.005L67.0264 555.807M18.0264 198.505L21.5264 268.005H18.0264V319.005H24.5264L25.0613 330.005L25.8393 346.005M21.5264 268.005H13.5264L11.0264 198.505M585.526 101.505H419.026V17.5049L8.52637 15.0049L12.5264 85.0049L18.0264 198.505M18.0264 198.505H15.0264M592.026 94.0049H426.026V0.504883L0.526367 4.50488C1.8597 30.5049 4.52637 83.0049 4.52637 85.0049L11.0264 198.505M11.0264 198.505H13.5264M12.5264 85.0049H9.52637M4.52637 85.0049H7.52637M7.52637 85.0049L13.5264 198.505M7.52637 85.0049H9.52637M13.5264 198.505H15.0264M9.52637 85.0049L15.0264 198.505M592.026 94.0049H794.526V162.505H790.026M592.026 94.0049V97.7549M592.026 101.505H590.526M592.026 101.505L592.526 153.505M592.026 101.505V97.7549M585.526 101.505V153.505M585.526 101.505H587.526M585.526 153.505V204.505M585.526 153.505H588.026M597.526 204.505V162.505M597.526 204.505V339.505M597.526 204.505H591.526M585.526 204.505V339.505M585.526 204.505H591.526M588.026 153.505L587.526 101.505M588.026 153.505H590.526M587.526 101.505H590.526M590.526 101.505V153.505M590.526 153.505H592.526M592.526 153.505H597.526V162.505M597.526 162.505H790.026M592.026 97.7549H790.026V162.505M585.526 339.505H591.526M585.526 339.505V360.505H515.026V411.005M597.526 339.505H591.526M597.526 339.505V375.005H526.526V411.005M591.526 204.505V339.505M515.026 411.005H526.526M515.026 411.005V542.505M526.526 411.005V542.505M515.026 542.505H526.526M515.026 542.505V558.005H510.026V561.005H483.526M268.526 565.005V570.005L483.526 572.505H526.526V542.505M483.526 561.005V565.505M483.526 572.505V566.755M268.526 558.005V563.005M483.526 566.755L268.526 565.005M483.526 566.755V565.505M268.526 565.005V563.005M268.526 563.005L483.526 565.505M136.553 514.505L138.526 556.505L131.526 556.437M67.0264 555.807L100.526 556.134L131.526 556.437M82.5264 464.505L83.5459 481.005L33.9355 512.505M83.5459 481.005H32.4037M33.9355 512.505L32.4037 481.005M30.8842 449.755L31.6014 464.505L32.4037 481.005M31.6014 464.505H82.5264M82.5264 464.505L81.8756 449.755M25.0613 330.005L76.5264 328.505L77.2984 346.005M25.8393 346.005H77.2984M25.8393 346.005L26.5687 361.005M77.2984 346.005L77.9602 361.005M26.5687 361.005H77.9602M26.5687 361.005L27.298 376.005M77.9602 361.005L78.622 376.005M27.298 376.005H78.622M27.298 376.005L28.0274 391.005M79.9014 405.005L79.2837 391.005L78.622 376.005M79.2837 391.005H28.0274M28.0274 391.005L28.7082 405.005M28.7082 405.005H79.9014M30.167 435.005L29.4376 420.005L28.7082 405.005M79.9014 405.005L80.5631 420.005M80.5631 420.005H29.4376M81.8756 449.755L81.2249 435.005L80.5631 420.005M30.167 435.005H81.2249M30.167 435.005L30.8842 449.755M81.8756 449.755H30.8842M83.5459 61.0049V61.5049M83.5459 61.5049V147.005H335.526V61.5049H83.5459Z" stroke="black"/>
</g>
</svg>
