<svg width="796" height="573" viewBox="0 0 796 573" fill="none" xmlns="http://www.w3.org/2000/svg">
<g id="Group 158">
<g id="mesa19">
<path id="vector 1213123" d="M78.0264 238.266V186.266H129.526V199.266V238.266H78.0264Z" stroke="black"/>
<path id="Vector 9860" d="M91.0264 238.765C91.0264 240.815 91.0264 241.965 91.0264 244.015M117.026 238.765C117.026 240.461 117.026 242.106 117.026 244.015M91.0264 244.015C94.3597 246.765 104.226 250.615 117.026 244.015M91.0264 244.015V247.765M117.026 244.015C117.026 245.527 117.026 246.891 117.026 247.765M91.0264 247.765C94.193 251.098 103.826 255.765 117.026 247.765M91.0264 247.765V249.265C95.0264 254.098 105.826 260.765 117.026 248.765V247.765M116.526 177.266V181.016C116.526 183.066 116.526 184.215 116.526 186.266M90.5264 177.266C90.5264 178.14 90.5264 179.504 90.5264 181.016C90.5264 182.924 90.5264 184.57 90.5264 186.266M116.526 181.016C113.193 178.266 103.326 174.416 90.5264 181.016M116.526 177.266C113.36 173.932 103.726 169.266 90.5264 177.266M116.526 177.266V175.766C112.526 170.932 101.726 164.266 90.5264 176.266L90.5264 177.266" stroke="black"/>
</g>
<g id="mesa20">
<path id="vector 1213123_2" d="M173.526 238.266V186.266H225.026V199.266V238.266H173.526Z" stroke="black"/>
<path id="Vector 9860_2" d="M186.526 238.765C186.526 240.815 186.526 241.965 186.526 244.015M212.526 238.765C212.526 240.461 212.526 242.106 212.526 244.015M186.526 244.015C189.86 246.765 199.726 250.615 212.526 244.015M186.526 244.015V247.765M212.526 244.015C212.526 245.527 212.526 246.891 212.526 247.765M186.526 247.765C189.693 251.098 199.326 255.765 212.526 247.765M186.526 247.765V249.265C190.526 254.098 201.326 260.765 212.526 248.765V247.765M212.026 177.266V181.016C212.026 183.066 212.026 184.215 212.026 186.266M186.026 177.266C186.026 178.14 186.026 179.504 186.026 181.016C186.026 182.924 186.026 184.57 186.026 186.266M212.026 181.016C208.693 178.266 198.826 174.416 186.026 181.016M212.026 177.266C208.86 173.932 199.226 169.266 186.026 177.266M212.026 177.266V175.766C208.026 170.932 197.226 164.266 186.026 176.266L186.026 177.266" stroke="black"/>
</g>
<g id="mesa21">
<path id="sla" d="M269.026 238.266V186.266H320.526V199.266V238.266H269.026Z" stroke="black"/>
<path id="Vector 9862" d="M282.026 238.765C282.026 240.815 282.026 241.965 282.026 244.015M308.026 238.765C308.026 240.461 308.026 242.106 308.026 244.015M282.026 244.015C285.36 246.765 295.226 250.615 308.026 244.015M282.026 244.015V247.765M308.026 244.015C308.026 245.527 308.026 246.891 308.026 247.765M282.026 247.765C285.193 251.098 294.826 255.765 308.026 247.765M282.026 247.765V249.265C286.026 254.098 296.826 260.765 308.026 248.765V247.765M307.526 177.266V181.016C307.526 183.066 307.526 184.215 307.526 186.266M281.526 177.266C281.526 178.14 281.526 179.504 281.526 181.016C281.526 182.924 281.526 184.57 281.526 186.266M307.526 181.016C304.193 178.266 294.326 174.416 281.526 181.016M307.526 177.266C304.36 173.932 294.726 169.266 281.526 177.266M307.526 177.266V175.766C303.526 170.932 292.726 164.266 281.526 176.266L281.526 177.266" stroke="black"/>
</g>
<g id="mesa22">
<path id="sla_2" d="M364.526 238.266V186.266H416.026V199.266V238.266H364.526Z" stroke="black"/>
<path id="Vector 9862_2" d="M377.526 238.765C377.526 240.815 377.526 241.965 377.526 244.015M403.526 238.765C403.526 240.461 403.526 242.106 403.526 244.015M377.526 244.015C380.86 246.765 390.726 250.615 403.526 244.015M377.526 244.015V247.765M403.526 244.015C403.526 245.527 403.526 246.891 403.526 247.765M377.526 247.765C380.693 251.098 390.326 255.765 403.526 247.765M377.526 247.765V249.265C381.526 254.098 392.326 260.765 403.526 248.765V247.765M403.026 177.266V181.016C403.026 183.066 403.026 184.215 403.026 186.266M377.026 177.266C377.026 178.14 377.026 179.504 377.026 181.016C377.026 182.924 377.026 184.57 377.026 186.266M403.026 181.016C399.693 178.266 389.826 174.416 377.026 181.016M403.026 177.266C399.86 173.932 390.226 169.266 377.026 177.266M403.026 177.266V175.766C399.026 170.932 388.226 164.266 377.026 176.266L377.026 177.266" stroke="black"/>
</g>
<g id="mesa23">
<path id="sla_3" d="M454.026 238.266V186.266H505.526V199.266V238.266H454.026Z" stroke="black"/>
<path id="Vector 9862_3" d="M467.026 238.765C467.026 240.815 467.026 241.965 467.026 244.015M493.026 238.765C493.026 240.461 493.026 242.106 493.026 244.015M467.026 244.015C470.36 246.765 480.226 250.615 493.026 244.015M467.026 244.015V247.765M493.026 244.015C493.026 245.527 493.026 246.891 493.026 247.765M467.026 247.765C470.193 251.098 479.826 255.765 493.026 247.765M467.026 247.765V249.265C471.026 254.098 481.826 260.765 493.026 248.765V247.765M492.526 177.266V181.016C492.526 183.066 492.526 184.215 492.526 186.266M466.526 177.266C466.526 178.14 466.526 179.504 466.526 181.016C466.526 182.924 466.526 184.57 466.526 186.266M492.526 181.016C489.193 178.266 479.326 174.416 466.526 181.016M492.526 177.266C489.36 173.932 479.726 169.266 466.526 177.266M492.526 177.266V175.766C488.526 170.932 477.726 164.266 466.526 176.266L466.526 177.266" stroke="black"/>
</g>
<g id="mesa24">
<path id="vector 1213123_3" d="M269.026 381.266V329.266H320.526V342.266V381.266H269.026Z" stroke="black"/>
<path id="Vector 9860_3" d="M282.026 381.765C282.026 383.815 282.026 384.965 282.026 387.015M308.026 381.765C308.026 383.461 308.026 385.106 308.026 387.015M282.026 387.015C285.36 389.765 295.226 393.615 308.026 387.015M282.026 387.015V390.765M308.026 387.015C308.026 388.527 308.026 389.891 308.026 390.765M282.026 390.765C285.193 394.098 294.826 398.765 308.026 390.765M282.026 390.765V392.265C286.026 397.098 296.826 403.765 308.026 391.765V390.765M307.526 320.266V324.016C307.526 326.066 307.526 327.215 307.526 329.266M281.526 320.266C281.526 321.14 281.526 322.504 281.526 324.016C281.526 325.924 281.526 327.57 281.526 329.266M307.526 324.016C304.193 321.266 294.326 317.416 281.526 324.016M307.526 320.266C304.36 316.932 294.726 312.266 281.526 320.266M307.526 320.266V318.766C303.526 313.932 292.726 307.266 281.526 319.266L281.526 320.266" stroke="black"/>
</g>
<g id="mesa25">
<path id="sla_4" d="M363.026 381.266V329.266H414.526V342.266V381.266H363.026Z" stroke="black"/>
<path id="Vector 9862_4" d="M376.026 381.765C376.026 383.815 376.026 384.965 376.026 387.015M402.026 381.765C402.026 383.461 402.026 385.106 402.026 387.015M376.026 387.015C379.36 389.765 389.226 393.615 402.026 387.015M376.026 387.015V390.765M402.026 387.015C402.026 388.527 402.026 389.891 402.026 390.765M376.026 390.765C379.193 394.098 388.826 398.765 402.026 390.765M376.026 390.765V392.265C380.026 397.098 390.826 403.765 402.026 391.765V390.765M401.526 320.266V324.016C401.526 326.066 401.526 327.215 401.526 329.266M375.526 320.266C375.526 321.14 375.526 322.504 375.526 324.016C375.526 325.924 375.526 327.57 375.526 329.266M401.526 324.016C398.193 321.266 388.326 317.416 375.526 324.016M401.526 320.266C398.36 316.932 388.726 312.266 375.526 320.266M401.526 320.266V318.766C397.526 313.932 386.726 307.266 375.526 319.266L375.526 320.266" stroke="black"/>
</g>
<g id="mesa26">
<path id="sla_5" d="M457.026 381.266V329.266H508.526V342.266V381.266H457.026Z" stroke="black"/>
<path id="Vector 9862_5" d="M470.026 381.765C470.026 383.815 470.026 384.965 470.026 387.015M496.026 381.765C496.026 383.461 496.026 385.106 496.026 387.015M470.026 387.015C473.36 389.765 483.226 393.615 496.026 387.015M470.026 387.015V390.765M496.026 387.015C496.026 388.527 496.026 389.891 496.026 390.765M470.026 390.765C473.193 394.098 482.826 398.765 496.026 390.765M470.026 390.765V392.265C474.026 397.098 484.826 403.765 496.026 391.765V390.765M495.526 320.266V324.016C495.526 326.066 495.526 327.215 495.526 329.266M469.526 320.266C469.526 321.14 469.526 322.504 469.526 324.016C469.526 325.924 469.526 327.57 469.526 329.266M495.526 324.016C492.193 321.266 482.326 317.416 469.526 324.016M495.526 320.266C492.36 316.932 482.726 312.266 469.526 320.266M495.526 320.266V318.766C491.526 313.932 480.726 307.266 469.526 319.266L469.526 320.266" stroke="black"/>
</g>
<g id="mesa27">
<path id="vector 1213123_4" d="M269.026 528.266V476.266H320.526V489.266V528.266H269.026Z" stroke="black"/>
<path id="Vector 9860_4" d="M282.026 528.765C282.026 530.815 282.026 531.965 282.026 534.015M308.026 528.765C308.026 530.461 308.026 532.106 308.026 534.015M282.026 534.015C285.36 536.765 295.226 540.615 308.026 534.015M282.026 534.015V537.765M308.026 534.015C308.026 535.527 308.026 536.891 308.026 537.765M282.026 537.765C285.193 541.098 294.826 545.765 308.026 537.765M282.026 537.765V539.265C286.026 544.098 296.826 550.765 308.026 538.765V537.765M307.526 467.266V471.016C307.526 473.066 307.526 474.215 307.526 476.266M281.526 467.266C281.526 468.14 281.526 469.504 281.526 471.016C281.526 472.924 281.526 474.57 281.526 476.266M307.526 471.016C304.193 468.266 294.326 464.416 281.526 471.016M307.526 467.266C304.36 463.932 294.726 459.266 281.526 467.266M307.526 467.266V465.766C303.526 460.932 292.726 454.266 281.526 466.266L281.526 467.266" stroke="black"/>
</g>
<g id="mesa28">
<path id="sla_6" d="M361.026 528.266V476.266H412.526V489.266V528.266H361.026Z" stroke="black"/>
<path id="Vector 9862_6" d="M374.026 528.765C374.026 530.815 374.026 531.965 374.026 534.015M400.026 528.765C400.026 530.461 400.026 532.106 400.026 534.015M374.026 534.015C377.36 536.765 387.226 540.615 400.026 534.015M374.026 534.015V537.765M400.026 534.015C400.026 535.527 400.026 536.891 400.026 537.765M374.026 537.765C377.193 541.098 386.826 545.765 400.026 537.765M374.026 537.765V539.265C378.026 544.098 388.826 550.765 400.026 538.765V537.765M399.526 467.266V471.016C399.526 473.066 399.526 474.215 399.526 476.266M373.526 467.266C373.526 468.14 373.526 469.504 373.526 471.016C373.526 472.924 373.526 474.57 373.526 476.266M399.526 471.016C396.193 468.266 386.326 464.416 373.526 471.016M399.526 467.266C396.36 463.932 386.726 459.266 373.526 467.266M399.526 467.266V465.766C395.526 460.932 384.726 454.266 373.526 466.266L373.526 467.266" stroke="black"/>
</g>
<g id="mesa29">
<path id="sla_7" d="M454.026 528.266V476.266H505.526V489.266V528.266H454.026Z" stroke="black"/>
<path id="Vector 9862_7" d="M467.026 528.765C467.026 530.815 467.026 531.965 467.026 534.015M493.026 528.765C493.026 530.461 493.026 532.106 493.026 534.015M467.026 534.015C470.36 536.765 480.226 540.615 493.026 534.015M467.026 534.015V537.765M493.026 534.015C493.026 535.527 493.026 536.891 493.026 537.765M467.026 537.765C470.193 541.098 479.826 545.765 493.026 537.765M467.026 537.765V539.265C471.026 544.098 481.826 550.765 493.026 538.765V537.765M492.526 467.266V471.016C492.526 473.066 492.526 474.215 492.526 476.266M466.526 467.266C466.526 468.14 466.526 469.504 466.526 471.016C466.526 472.924 466.526 474.57 466.526 476.266M492.526 471.016C489.193 468.266 479.326 464.416 466.526 471.016M492.526 467.266C489.36 463.932 479.726 459.266 466.526 467.266M492.526 467.266V465.766C488.526 460.932 477.726 454.266 466.526 466.266L466.526 467.266" stroke="black"/>
</g>
<path id="Vector 9861" d="M85.5264 482.005H135.026M100.526 556.134L85.5264 482.005L84.5361 463.005M85.5264 482.005L136.553 514.505M85.5264 482.005L131.526 556.437M135.026 482.005L134.276 463.005M135.026 482.005L136.553 514.505M483.526 561.005L268.526 558.005H266.026H258.526L260.026 328.505H77.5264L83.5459 444.005M83.5459 444.005H133.526L134.276 463.005M83.5459 444.005L84.5361 463.005M84.5361 463.005H134.276M33.9355 512.505L36.0264 555.505L67.0264 555.807M36.0264 555.505L83.5459 482.005L67.0264 555.807M18.0264 198.505L21.5264 268.005H18.0264V319.005H24.5264L25.0613 330.005L25.8393 346.005M21.5264 268.005H13.5264L11.0264 198.505M585.526 101.505H419.026V17.5049L8.52637 15.0049L12.5264 85.0049L18.0264 198.505M18.0264 198.505H15.0264M592.026 94.0049H426.026V0.504883L0.526367 4.50488C1.8597 30.5049 4.52637 83.0049 4.52637 85.0049L11.0264 198.505M11.0264 198.505H13.5264M12.5264 85.0049H9.52637M4.52637 85.0049H7.52637M7.52637 85.0049L13.5264 198.505M7.52637 85.0049H9.52637M13.5264 198.505H15.0264M9.52637 85.0049L15.0264 198.505M592.026 94.0049H794.526V162.505H790.026M592.026 94.0049V97.7549M592.026 101.505H590.526M592.026 101.505L592.526 153.505M592.026 101.505V97.7549M585.526 101.505V153.505M585.526 101.505H587.526M585.526 153.505V204.505M585.526 153.505H588.026M597.526 204.505V162.505M597.526 204.505V339.505M597.526 204.505H591.526M585.526 204.505V339.505M585.526 204.505H591.526M588.026 153.505L587.526 101.505M588.026 153.505H590.526M587.526 101.505H590.526M590.526 101.505V153.505M590.526 153.505H592.526M592.526 153.505H597.526V162.505M597.526 162.505H790.026M592.026 97.7549H790.026V162.505M585.526 339.505H591.526M585.526 339.505V360.505H515.026V411.005M597.526 339.505H591.526M597.526 339.505V375.005H526.526V411.005M591.526 204.505V339.505M515.026 411.005H526.526M515.026 411.005V542.505M526.526 411.005V542.505M515.026 542.505H526.526M515.026 542.505V558.005H510.026V561.005H483.526M268.526 565.005V570.005L483.526 572.505H526.526V542.505M483.526 561.005V565.505M483.526 572.505V566.755M268.526 558.005V563.005M483.526 566.755L268.526 565.005M483.526 566.755V565.505M268.526 565.005V563.005M268.526 563.005L483.526 565.505M136.553 514.505L138.526 556.505L131.526 556.437M67.0264 555.807L100.526 556.134L131.526 556.437M82.5264 464.505L83.5459 481.005L33.9355 512.505M83.5459 481.005H32.4037M33.9355 512.505L32.4037 481.005M30.8842 449.755L31.6014 464.505L32.4037 481.005M31.6014 464.505H82.5264M82.5264 464.505L81.8756 449.755M25.0613 330.005L76.5264 328.505L77.2984 346.005M25.8393 346.005H77.2984M25.8393 346.005L26.5687 361.005M77.2984 346.005L77.9602 361.005M26.5687 361.005H77.9602M26.5687 361.005L27.298 376.005M77.9602 361.005L78.622 376.005M27.298 376.005H78.622M27.298 376.005L28.0274 391.005M79.9014 405.005L79.2837 391.005L78.622 376.005M79.2837 391.005H28.0274M28.0274 391.005L28.7082 405.005M28.7082 405.005H79.9014M30.167 435.005L29.4376 420.005L28.7082 405.005M79.9014 405.005L80.5631 420.005M80.5631 420.005H29.4376M81.8756 449.755L81.2249 435.005L80.5631 420.005M30.167 435.005H81.2249M30.167 435.005L30.8842 449.755M81.8756 449.755H30.8842M83.5459 61.0049V61.5049M83.5459 61.5049V147.005H335.526V61.5049H83.5459Z" stroke="black"/>
</g>
</svg>
