<svg width="1148" height="580" viewBox="0 0 1148 580" fill="none" xmlns="http://www.w3.org/2000/svg">
<g id="Group 159">
<path id="Vector 9860" d="M377.643 178H430.026M378.523 193H430.906M378.921 206.5H431.303M380.252 222.5H432.091M381.073 236.5H432.781M381.953 251.5H433.52M382.832 266.5H434.259M383.624 280H434.924M384.533 295.5H435.687M124.5 475C124.5 477.05 124.5 478.2 124.5 480.25M150.5 474.5C150.5 476.196 150.5 478.341 150.5 480.25M124.5 480.25C127.833 483 137.7 486.85 150.5 480.25M124.5 480.25V484M150.5 480.25C150.5 481.762 150.5 483.126 150.5 484M124.5 484C127.667 487.333 137.3 492 150.5 484M124.5 484V485.5C128.5 490.333 139.3 497 150.5 485V484M203.5 474.514C203.5 476.624 203.5 477.807 203.5 479.917M229.5 474C229.5 475.745 229.5 477.952 229.5 479.917M203.5 479.917C206.833 482.746 216.7 486.708 229.5 479.917M203.5 479.917V483.775M229.5 479.917C229.5 481.472 229.5 482.876 229.5 483.775M203.5 483.775C206.667 487.205 216.3 492.007 229.5 483.775M203.5 483.775V485.319C207.5 490.292 218.3 497.152 229.5 484.804V483.775M287.5 474.5C287.5 476.55 287.5 478.2 287.5 480.25M313.5 474.5C313.5 476.196 313.5 478.341 313.5 480.25M287.5 480.25C290.833 483 300.7 486.85 313.5 480.25M287.5 480.25V484M313.5 480.25C313.5 481.762 313.5 483.126 313.5 484M287.5 484C290.667 487.333 300.3 492 313.5 484M287.5 484V485.5C291.5 490.333 302.3 497 313.5 485V484M731 492.5C731 494.55 731 495.7 731 497.75M757 492.5C757 494.196 757 495.841 757 497.75M731 497.75C734.333 500.5 744.2 504.35 757 497.75M731 497.75V501.5M757 497.75C757 499.262 757 500.626 757 501.5M731 501.5C734.167 504.833 743.8 509.5 757 501.5M731 501.5V503C735 507.833 745.8 514.5 757 502.5V501.5M811 493C811 495.05 811 496.2 811 498.25M837 492.5C837 494.196 837 496.341 837 498.25M811 498.25C814.333 501 824.2 504.85 837 498.25M811 498.25V502M837 498.25C837 499.762 837 501.126 837 502M811 502C814.167 505.333 823.8 510 837 502M811 502V503.5C815 508.333 825.8 515 837 503V502M650.5 493C650.5 495.05 650.5 496.2 650.5 498.25M676.5 492.5C676.5 494.196 676.5 496.341 676.5 498.25M650.5 498.25C653.833 501 663.7 504.85 676.5 498.25M650.5 498.25V502M676.5 498.25C676.5 499.762 676.5 501.126 676.5 502M650.5 502C653.667 505.333 663.3 510 676.5 502M650.5 502V503.5C654.5 508.333 665.3 515 676.5 503V502M703.5 378C705.55 378 706.7 378 708.75 378M712.5 378H714C718.833 374 725.5 363.2 713.5 352H712.5C711.626 352 710.262 352 708.75 352C706.841 352 704.696 352 703 352M708.75 378C711.5 374.667 715.35 364.8 708.75 352M708.75 378H712.5M712.5 378C715.833 374.833 720.5 365.2 712.5 352M652 352H646.75M646.75 352C644 355.333 640.15 365.2 646.75 378M646.75 352H643M646.75 378H652.5M646.75 378H643M643 352C639.667 355.167 635 364.8 643 378M643 352H641.5C636.667 356 630 366.8 642 378H643M770 352H764.75M764.75 352C762 355.333 758.15 365.2 764.75 378M764.75 352H761M764.75 378H770.5M764.75 378H761M761 352C757.667 355.167 753 364.8 761 378M761 352H759.5C754.667 356 748 366.8 760 378H761M821.5 378H826.75M826.75 378C829.5 374.667 833.35 364.8 826.75 352M826.75 378H830.5M826.75 352H821M826.75 352H830.5M830.5 378C833.833 374.833 838.5 365.2 830.5 352M830.5 378H832C836.833 374 843.5 363.2 831.5 352H830.5M770 297H764.75M764.75 297C762 300.333 758.15 310.2 764.75 323M764.75 297H761M764.75 323H770.5M764.75 323H761M761 297C757.667 300.167 753 309.8 761 323M761 297H759.5C754.667 301 748 311.8 760 323H761M821.5 323H826.75M826.75 323C829.5 319.667 833.35 309.8 826.75 297M826.75 323H830.5M826.75 297H821M826.75 297H830.5M830.5 323C833.833 319.833 838.5 310.2 830.5 297M830.5 323H832C836.833 319 843.5 308.2 831.5 297H830.5M704 323H709.25M709.25 323C712 319.667 715.85 309.8 709.25 297M709.25 323H713M709.25 297H703.5M709.25 297H713M713 323C716.333 319.833 721 310.2 713 297M713 323H714.5C719.333 319 726 308.2 714 297H713M944 459.5V463.25C944 465.3 944 466.45 944 468.5M944 463.25C940.667 460.5 930.8 456.65 918 463.25M918 468.5V463.25C918 461.738 918 460.374 918 459.5M944 459.5C940.833 456.167 931.2 451.5 918 459.5M944 459.5V458C940 453.167 929.2 446.5 918 458.5V459.5M944 348.5V352.25C944 354.3 944 355.45 944 357.5M944 352.25C940.667 349.5 930.8 345.65 918 352.25M918 357.5V352.25C918 350.738 918 349.374 918 348.5M944 348.5C940.833 345.167 931.2 340.5 918 348.5M944 348.5V347C940 342.167 929.2 335.5 918 347.5V348.5M918 408.5C918 410.55 918 411.7 918 413.75M918 413.75C921.333 416.5 931.2 420.35 944 413.75M918 413.75V417.5M944 413.75C944 415.262 944 416.626 944 417.5M944 413.75V408.5M918 417.5C921.167 420.833 930.8 425.5 944 417.5M918 417.5V419C922 423.833 932.8 430.5 944 418.5V417.5M1055 553.5C1055 551.5 1056.17 551.5 1057 551.5H1129C1131 551.5 1131.17 552.833 1131 553.5M1055 553.5V559.5C1055 560.5 1055.8 560.5 1057 560.5C1058.2 560.5 1105.17 560.5 1128.5 560.5C1131 560.5 1131 559.7 1131 558.5C1131 557.3 1131 554.667 1131 553.5M1055 553.5V526.5H1131V553.5M1131.05 453.5C1131.05 455.5 1129.88 455.5 1129.05 455.5C1100.93 455.5 1085.17 455.5 1057.05 455.5C1055.72 455.5 1055.2 454.907 1055.05 454.315M1131.05 453.5V447.5C1131.05 446.5 1130.25 446.5 1129.05 446.5H1057.55C1055.05 446.5 1055.05 447.3 1055.05 448.5V453.5M1131.05 453.5V480.5H1055.05V454.315M1055.05 453.5C1054.99 453.722 1054.97 454.019 1055.05 454.315M1055.05 453.5V454.315M1130.5 340.5C1130.5 342.5 1129.33 342.5 1128.5 342.5H1056.5C1055.17 342.5 1054.65 341.907 1054.5 341.315M1130.5 340.5V334.5C1130.5 333.5 1129.7 333.5 1128.5 333.5H1057C1054.5 333.5 1054.5 334.3 1054.5 335.5V340.5M1130.5 340.5V367.5H1054.5V341.315M1054.5 340.5C1054.44 340.722 1054.43 341.019 1054.5 341.315M1054.5 340.5V341.315M1055 439.5C1055 437.5 1056.17 437.5 1057 437.5C1085.12 437.5 1100.88 437.5 1129 437.5C1130.33 437.5 1130.85 438.093 1131 438.685M1055 439.5V445.5C1055 446.5 1055.8 446.5 1057 446.5H1128.5C1131 446.5 1131 445.7 1131 444.5V439.5M1055 439.5V412.5H1131V438.685M1131 439.5C1131.06 439.278 1131.07 438.981 1131 438.685M1131 439.5V438.685M1054.5 324.865C1054.5 322.865 1055.62 323.5 1056.45 323.5H1128.45C1129.78 323.5 1130.35 323.457 1130.5 324.05M1054.5 324.865V330.865C1054.5 331.865 1055.35 331.865 1056.55 331.865H1128.05C1130.55 331.865 1130.5 331.065 1130.5 329.865V324.865M1054.5 324.865V297.865H1130.5V324.05M1130.5 324.865C1130.56 324.643 1130.57 324.346 1130.5 324.05M1130.5 324.865V324.05M1054.6 212C1054.6 210 1055.67 211 1056.5 211H1092.5H1128.45C1129.78 211 1130.45 210.593 1130.6 211.185M1054.6 212V218C1054.6 219 1055.4 219 1056.6 219H1128.1C1130.6 219 1130.6 218.2 1130.6 217V212M1054.6 212V185H1130.6V211.185M1130.6 212C1130.65 211.778 1130.67 211.481 1130.6 211.185M1130.6 212V211.185M1130.45 227.5V221.5C1130.45 220.5 1129.65 220.5 1128.45 220.5H1056.95C1054.45 220.5 1054.45 221.3 1054.45 222.5V225M1130.45 227.5V254.5H1054.45V228.315C1054.38 228.019 1054.4 227.722 1054.45 227.5V225M1130.45 227.5C1130.45 228.3 1129.15 228.5 1128.5 228.5C1100.38 228.5 1084.62 228.5 1056.5 228.5C1054.86 228.5 1054.43 226.5 1054.45 225M1056.5 115.5H1128.5M1130.5 113.5V107.5C1130.5 106.5 1129.7 106.5 1128.5 106.5H1057C1054.5 106.5 1054.5 107.3 1054.5 108.5V113.5C1054.44 113.722 1054.43 114.019 1054.5 114.315V140.5H1130.5V113.5Z" stroke="black"/>
<path id="Vector 9860_2" d="M350.5 287.226V215.5L274.419 216.406" stroke="black"/>
<path id="mesa18" d="M274.419 216.405L224.5 217C226 245.166 224.5 313.5 224.5 313.5C224.5 327.5 238.5 334 249 334H350.5V287.226" stroke="black"/>
<path id="Vector 9860_3" d="M1055 170.549V182.5H1072.5" stroke="black"/>
<path id="mesa17" d="M1072.5 182.5H1130.5V143.5H1055V170.549" stroke="black"/>
<path id="Vector 9860_4" d="M1054.45 288.289V296.5H1074" stroke="black"/>
<path id="mesa16" d="M1074 296.5H1131L1131.5 256.5H1054.45V288.289" stroke="black"/>
<path id="Vector 9860_5" d="M1055 399.623V409.5H1077.14" stroke="black"/>
<path id="mesa15" d="M1077.14 409.5H1131V370.5H1055V399.623" stroke="black"/>
<path id="Vector 9860_6" d="M1055 518.607V523.5H1073.27" stroke="black"/>
<path id="mesa14" d="M1073.27 523.5H1131V483.5H1055V518.607" stroke="black"/>
<path id="mesa11" d="M789.449 290.5H821V331H770V326.58" stroke="black"/>
<path id="Vector 9860_7" d="M770 326.58V290.5H789.449" stroke="black"/>
<path id="mesa9" d="M663.823 290.5H703.5V331H652.5V322.583M652.353 323H653" stroke="black"/>
<path id="Vector 9860_8" d="M663.823 290.5H652.5V309.682M652.5 322.583V309.682M652.5 297H647.25M647.25 297C644.5 300.333 640.65 310.2 647.25 323M647.25 297H643.5M647.25 323H643.5M647.25 323H652.353M643.5 323H642.5C630.5 311.8 637.167 301 642 297H643.5M643.5 323C635.5 309.8 640.167 300.167 643.5 297" stroke="black"/>
<path id="mesa1" d="M26 442.5V474.5H70.5M44.5 475C44.5 477.05 44.5 478.2 44.5 480.25M44.5 480.25V484M44.5 480.25C47.8333 483 57.7 486.85 70.5 480.25M44.5 484V485.5C48.5 490.333 59.3 497 70.5 485C70.5 485 70.5 484.625 70.5 484M44.5 484C47.6667 487.333 57.3 492 70.5 484M70.5 484C70.5 483.126 70.5 481.762 70.5 480.25M70.5 480.25C70.5 478.341 70.5 476.196 70.5 474.5M70.5 474.5H88.5V442.5" stroke="black"/>
<path id="mesa2" d="M118 442.484V474.5C133.23 474.5 157 474.5 157 474.5V442.078" stroke="black"/>
<path id="mesa3" d="M249 443.029V474.5H187V443.479" stroke="black"/>
<path id="mesa4" d="M330 443.924V474.5H268V443.514" stroke="black"/>
<path id="mesa5" d="M644 462.25V492.5H683V463.469" stroke="black"/>
<path id="mesa6" d="M775 462.559V492.5H712.5V462.967" stroke="black"/>
<path id="mesa7" d="M855 461.963V492.5H792.5V461.058" stroke="black"/>
<path id="Vector 9860_9" d="M178.5 415C205.182 415 232.693 415 259 415M178.5 415V441M178.5 415C149.281 415 121.057 415 96.5 415M259 415V441M259 415C287.843 415 315.237 415 338.5 415M14.5 409V394L347 398V409M14.5 409H347M14.5 409V415M347 409V415M386.993 344L389 387L419 388.176L453.5 389.529L485.5 390.784M453.5 389.529L436.5 312M485.5 390.784L436.5 312M485.5 390.784L491 391M434.727 276H485.5L486.5 293.5L487 312M487 312H436.5M347 415L491 421V391L489.028 346.5L487 312M486.5 293.5L435.613 294M435.613 294L434.727 276M435.613 294L436.5 312M434.727 276L429.235 164.5M376.852 164.5H429.235M376.852 164.5L376.5 158.5M376.852 164.5L385.5 312M429.235 164.5L429 158.5H376.5M1134.5 45.5V8.5H952.5M1134.5 45.5H1138.62M1134.5 45.5V180M1138.62 45.5H1142.75M1138.62 45.5V180M1142.75 45.5V180M1142.75 45.5H1147M1142.75 180H1138.62M1142.75 180H1147M1138.62 180H1134.5M1134.5 180V195M1138.5 412H1142.75M1138.5 412V195M1138.5 412H1133.5M1142.75 412V195M1142.75 412H1147M1142.75 195H1138.5M1142.75 195H1147M1138.5 195H1134.5M1133.5 428V412L1134.5 195M1142.75 428H1138.5M1142.75 428V555M1142.75 428H1147M1138.5 428H1133.5M1138.5 428V555M1133.5 428V555M652.5 386H614V398H601V427H621M652.5 386V383.37M652.5 386H703M703 381.723V386M703 386H770M770 386V382.44M770 386H821M821 386V381.755M821 386H858V380H867V339H890V357.5M894.539 357.5H890M890 357.5V408.5M890 408.5H895.211M890 408.5V468.5M894.448 468.5H890M890 468.5V519.5M890 519.5L894.094 519.538M890 519.5V553L1133.5 566V555M1133.5 555H1138.5M1138.5 555H1142.75M1142.75 555H1147M867 559V551M867 559L601 548.5M867 559V563.5M867 551L601 540M867 551V547M601 540V548.5M601 540V535.293M601 548.5V552.111M565.5 550.591L601 552.111L867 563.5M867 563.5L1147 578.5V555M1147 195V180M1147 195V412M1147 45.5V0.5H952.5M1147 45.5V180M952.5 0.5H937.5V8.5L937.147 28M952.5 0.5V8.5M950.116 165.5L952.5 28V8.5M1147 428V555M1147 428V412M952.5 28H948M694 193H711V182M694 193V199M694 193V133.5M867 199H694M694 199V215.5H867.5V232.5H890.5V201H949.5L950.116 165.5M950.116 165.5H946M948 28H942M948 28L946 165.5M942 28L940 165.5M942 28H937.147M940 165.5H934.654M940 165.5H946M711 182H925.5V174H934.5L934.654 165.5L937.147 28M711 182H702V80.5H694V133.5M694 133.5H376.5V158.5M14.5 527H0.5V222.5V158.5L19 157.5L376.5 158.5M194.5 214H156.5V233H180.5V374.5H103.5V233H111.5V214H84.5V233H92V374.5H14.5V233H39V214H19V157.5M194.5 214V313.5V366L376 367.5L374.75 339.75M194.5 214H221V313.5C221 339.75 218.5 337.5 229.5 337.5L374.75 339.75M374.75 339.75L373.5 312H385.5M385.5 312H437.883M385.5 312L386.993 344M386.993 344L436.5 312M389 387L436.5 312M419 388.176L436.5 312M436.5 312L489.028 346.5M347 415C344.234 415 341.399 415 338.5 415M338.5 415V441H330M330 441V443.924M330 441H268M268 441V443.513M268 441H259M259 441H249M330 540.508V536M330 540.508L14.5 527M330 540.508L456.5 545.924M330 536V528.5M330 536L14.5 523.661M249 441H187M249 441V443.029M187 441H178.5M187 441V443.478M178.5 441H157M157 441V442.078M157 441H118M118 441H96.5M118 441V442.484M26 441H40.5H88.5M26 441V442.5M26 441H14.5M88.5 441V442.5M88.5 441H96.5M96.5 441V415M96.5 415C74.1086 415 54.7666 415 40.5 415C24.3181 415 14.666 415 14.5 415M14.5 441V415M14.5 441V510.5M14.5 510.5V515.5M14.5 510.5L330 523.661M14.5 515.5L330 528.5M14.5 515.5V523.661M330 523.661L347 524.37L456.5 528.937M330 523.661V528.5M683 458.5H703.75M683 458.5V463.469M683 458.5H644M703.75 458.5V433.116M703.75 458.5H712.5M14.5 523.661V527M456.5 542L565.5 545.924M456.5 542V533.731M456.5 542V545.924M565.5 545.924V538.5M565.5 545.924V550.591M456.5 533.731L565.5 538.5M456.5 533.731V528.937M784 433.145C813.533 433.134 841.953 433.093 864 433M623.5 433C623.5 433 658.425 433.072 703.75 433.116C728.711 433.14 756.827 433.155 784 433.145M784 433.145V458.5M864 433V458.5H855M864 433C865 432 867 429.4 867 427M565.5 533.731L458 529L456.5 528.937M867 547L601 535.293L565.5 533.731M565.5 533.731V538.5M867 547V427M623.5 433C621.1 432.2 620.833 428.667 621 427V415H867V427M565.5 550.591L456.5 545.924M784 458.5H792.5M784 458.5H775M792.5 458.5H855M792.5 458.5V461.058M644 458.5V462.25M644 458.5H623.5V433M855 458.5V461.964M775 462.559V458.5M775 458.5H712.5M712.5 458.5V462.967" stroke="black"/>
<path id="mesa13" d="M918 529V530.5C922 535.333 932.8 542 944 530V529M918 529C921.167 532.333 930.8 537 944 529M918 529V525.25M944 529C944 528.126 944 526.762 944 525.25M894.094 519.538L944 520M944 520V525.25M944 520L970.5 519.5V468.5H931H894.448M944 525.25C931.2 531.85 921.334 528 918 525.25M918 525.25C918 523.2 918 522.05 918 520" stroke="black"/>
<path id="mesa12" d="M894.539 357.5H934H970.5V408.5H934H895.21" stroke="black"/>
<path id="mesa10" d="M821 381.755V345.5H770V382.44" stroke="black"/>
<path id="mesa8" d="M703 381.723V345.5H652.5V383.37" stroke="black"/>
</g>
</svg>
